<?xml version="1.0" encoding="UTF-8"?>
<!DOCTYPE svg PUBLIC "-//W3C//DTD SVG 1.1//EN" "http://www.w3.org/Graphics/SVG/1.1/DTD/svg11.dtd">
<svg xmlns="http://www.w3.org/2000/svg" version="1.1" width="330px" height="330px" style="shape-rendering:geometricPrecision; text-rendering:geometricPrecision; image-rendering:optimizeQuality; fill-rule:evenodd; clip-rule:evenodd" xmlns:xlink="http://www.w3.org/1999/xlink">
<g><path style="opacity:1" fill="#fefefe" d="M -0.5,-0.5 C 109.5,-0.5 219.5,-0.5 329.5,-0.5C 329.5,109.5 329.5,219.5 329.5,329.5C 219.5,329.5 109.5,329.5 -0.5,329.5C -0.5,219.5 -0.5,109.5 -0.5,-0.5 Z"/></g>
<g><path style="opacity:1" fill="#8d8d8f" d="M 137.5,32.5 C 138.242,29.8619 140.075,28.5286 143,28.5C 146.985,28.6549 149.152,30.6549 149.5,34.5C 154.187,35.2563 157.853,33.7563 160.5,30C 165.199,27.6737 168.866,28.8404 171.5,33.5C 174.795,34.9148 177.795,34.5815 180.5,32.5C 180.408,41.2745 183.908,43.2745 191,38.5C 191.495,36.5273 191.662,34.5273 191.5,32.5C 196.197,35.4956 200.197,34.6622 203.5,30C 208.199,27.6737 211.866,28.8404 214.5,33.5C 217.795,34.9148 220.795,34.5815 223.5,32.5C 223.574,30.5891 224.574,29.4224 226.5,29C 234.115,28.341 236.949,31.841 235,39.5C 232.441,42.3492 229.274,43.1825 225.5,42C 223.393,40.7365 222.393,38.9032 222.5,36.5C 217.913,35.6218 214.58,37.1218 212.5,41C 207.238,43.7439 203.238,42.5772 200.5,37.5C 197.914,36.52 195.247,36.1866 192.5,36.5C 191.44,42.0953 188.107,43.9286 182.5,42C 180.393,40.7365 179.393,38.9032 179.5,36.5C 174.913,35.6218 171.58,37.1218 169.5,41C 166.577,42.7104 163.577,42.877 160.5,41.5C 159.702,41.0431 159.369,40.3764 159.5,39.5C 156.761,36.9758 153.428,35.9758 149.5,36.5C 148.44,42.0953 145.107,43.9286 139.5,42C 137.393,40.7365 136.393,38.9032 136.5,36.5C 131.913,35.6218 128.58,37.1218 126.5,41C 123.577,42.7104 120.577,42.877 117.5,41.5C 116.702,41.0431 116.369,40.3764 116.5,39.5C 113.761,36.9758 110.428,35.9758 106.5,36.5C 105.44,42.0953 102.107,43.9286 96.5,42C 93.4672,39.2393 92.8005,36.0726 94.5,32.5C 95.2415,29.8619 97.0749,28.5286 100,28.5C 103.985,28.6549 106.152,30.6549 106.5,34.5C 111.187,35.2563 114.853,33.7563 117.5,30C 122.199,27.6737 125.866,28.8404 128.5,33.5C 131.795,34.9148 134.795,34.5815 137.5,32.5 Z"/></g>
<g><path style="opacity:1" fill="#f9f9f9" d="M 223.5,32.5 C 230.705,27.8543 234.205,29.8543 234,38.5C 226.908,43.2745 223.408,41.2745 223.5,32.5 Z"/></g>
<g><path style="opacity:1" fill="#fafafa" d="M 204.5,30.5 C 211.993,29.8288 214.326,32.9954 211.5,40C 206.601,42.5497 203.267,41.2163 201.5,36C 202.124,33.9149 203.124,32.0816 204.5,30.5 Z"/></g>
<g><path style="opacity:1" fill="#f8f8f8" d="M 191.5,32.5 C 191.662,34.5273 191.495,36.5273 191,38.5C 183.908,43.2745 180.408,41.2745 180.5,32.5C 184.167,28.5 187.833,28.5 191.5,32.5 Z"/></g>
<g><path style="opacity:1" fill="#f9f9f9" d="M 159.5,39.5 C 157.827,32.6713 160.494,29.8379 167.5,31C 171.888,36.0049 170.888,39.5049 164.5,41.5C 162.7,41.0976 161.033,40.4309 159.5,39.5 Z"/></g>
<g><path style="opacity:1" fill="#f8f8f8" d="M 137.5,32.5 C 141.011,28.6054 144.511,28.6054 148,32.5C 149.329,38.8342 146.829,41.6675 140.5,41C 137.875,38.8038 136.875,35.9705 137.5,32.5 Z"/></g>
<g><path style="opacity:1" fill="#f9f9f9" d="M 116.5,39.5 C 114.827,32.6713 117.494,29.8379 124.5,31C 128.888,36.0049 127.888,39.5049 121.5,41.5C 119.7,41.0976 118.033,40.4309 116.5,39.5 Z"/></g>
<g><path style="opacity:1" fill="#f8f8f8" d="M 94.5,32.5 C 98.0106,28.6054 101.511,28.6054 105,32.5C 106.329,38.8342 103.829,41.6675 97.5,41C 94.8748,38.8038 93.8748,35.9705 94.5,32.5 Z"/></g>
<g><path style="opacity:1" fill="#878788" d="M 191.5,32.5 C 187.833,28.5 184.167,28.5 180.5,32.5C 181.242,29.8619 183.075,28.5286 186,28.5C 188.925,28.5286 190.758,29.8619 191.5,32.5 Z"/></g>
<g><path style="opacity:1" fill="#111111" d="M 159.5,70.5 C 159.5,71.1667 159.5,71.8333 159.5,72.5C 157.874,76.8115 154.874,78.1448 150.5,76.5C 145.934,71.4886 146.767,67.8219 153,65.5C 156.455,65.6298 158.622,67.2964 159.5,70.5 Z"/></g>
<g><path style="opacity:1" fill="#111111" d="M 169.5,72.5 C 169.5,71.8333 169.5,71.1667 169.5,70.5C 171.334,65.4225 174.667,64.2558 179.5,67C 182.834,72.3817 181.334,75.8817 175,77.5C 172.046,77.0448 170.212,75.3781 169.5,72.5 Z"/></g>
<g><path style="opacity:1" fill="#9d9d9d" d="M 159.5,70.5 C 162.833,70.5 166.167,70.5 169.5,70.5C 169.5,71.1667 169.5,71.8333 169.5,72.5C 166.167,72.5 162.833,72.5 159.5,72.5C 159.5,71.8333 159.5,71.1667 159.5,70.5 Z"/></g>
<g><path style="opacity:1" fill="#8f8f91" d="M 295.5,72.5 C 298.704,73.3781 300.37,75.5448 300.5,79C 300.478,81.1829 299.478,82.6829 297.5,83.5C 299.302,79.3031 298.635,75.6365 295.5,72.5 Z"/></g>
<g><path style="opacity:1" fill="#f8f8f9" d="M 295.5,72.5 C 298.635,75.6365 299.302,79.3031 297.5,83.5C 292.261,85.5473 288.928,83.8806 287.5,78.5C 288.757,74.5713 291.424,72.5713 295.5,72.5 Z"/></g>
<g><path style="opacity:1" fill="#0f0f0f" d="M 36.5,95.5 C 35.8333,95.5 35.1667,95.5 34.5,95.5C 29.817,93.7905 28.317,90.4571 30,85.5C 32.9684,83.0092 36.1351,82.8426 39.5,85C 42.6039,89.6396 41.6039,93.1396 36.5,95.5 Z"/></g>
<g><path style="opacity:1" fill="#838383" d="M 295.5,72.5 C 291.424,72.5713 288.757,74.5713 287.5,78.5C 288.928,83.8806 292.261,85.5473 297.5,83.5C 294.063,86.9043 293.73,90.5709 296.5,94.5C 290.373,93.6265 287.373,96.2932 287.5,102.5C 285.212,97.4308 286.878,94.4308 292.5,93.5C 293.378,88.9133 291.878,85.58 288,83.5C 285.46,78.903 286.293,75.0696 290.5,72C 292.387,71.2204 294.054,71.3871 295.5,72.5 Z"/></g>
<g><path style="opacity:1" fill="#f9f9f9" d="M 296.5,94.5 C 299.12,98.0019 299.12,101.502 296.5,105C 292.9,106.073 289.9,105.24 287.5,102.5C 287.373,96.2932 290.373,93.6265 296.5,94.5 Z"/></g>
<g><path style="opacity:1" fill="#939393" d="M 34.5,95.5 C 35.1667,95.5 35.8333,95.5 36.5,95.5C 36.5,98.5 36.5,101.5 36.5,104.5C 35.8333,104.5 35.1667,104.5 34.5,104.5C 34.5,101.5 34.5,98.5 34.5,95.5 Z"/></g>
<g><path style="opacity:1" fill="#111111" d="M 34.5,104.5 C 35.1667,104.5 35.8333,104.5 36.5,104.5C 41.0785,105.786 42.5785,108.786 41,113.5C 39.871,115.141 38.371,116.141 36.5,116.5C 35.8333,116.5 35.1667,116.5 34.5,116.5C 29.232,114.509 28.232,111.176 31.5,106.5C 32.3569,105.575 33.3569,104.908 34.5,104.5 Z"/></g>
<g><path style="opacity:1" fill="#111112" d="M 127.5,113.5 C 127.5,114.167 127.5,114.833 127.5,115.5C 126.833,118.167 125.167,119.833 122.5,120.5C 121.833,120.5 121.167,120.5 120.5,120.5C 116.378,118.923 114.878,115.923 116,111.5C 118.679,108.165 121.845,107.665 125.5,110C 126.823,110.816 127.489,111.983 127.5,113.5 Z"/></g>
<g><path style="opacity:1" fill="#0c0c0d" d="M 148.5,113.5 C 148.5,114.167 148.5,114.833 148.5,115.5C 147.412,119.748 144.745,121.248 140.5,120C 138.859,118.871 137.859,117.371 137.5,115.5C 137.5,114.833 137.5,114.167 137.5,113.5C 139.441,108.239 142.775,107.239 147.5,110.5C 148.386,111.325 148.719,112.325 148.5,113.5 Z"/></g>
<g><path style="opacity:1" fill="#111112" d="M 170.5,113.5 C 170.5,114.167 170.5,114.833 170.5,115.5C 168.892,119.637 165.892,121.137 161.5,120C 160.117,118.729 159.117,117.229 158.5,115.5C 158.5,114.833 158.5,114.167 158.5,113.5C 160.334,108.423 163.667,107.256 168.5,110C 169.823,110.816 170.489,111.983 170.5,113.5 Z"/></g>
<g><path style="opacity:1" fill="#0d0d0e" d="M 191.5,113.5 C 191.5,114.167 191.5,114.833 191.5,115.5C 190.412,119.748 187.745,121.248 183.5,120C 181.859,118.871 180.859,117.371 180.5,115.5C 180.5,114.833 180.5,114.167 180.5,113.5C 181.174,108.849 183.841,107.349 188.5,109C 190.141,110.129 191.141,111.629 191.5,113.5 Z"/></g>
<g><path style="opacity:1" fill="#111112" d="M 208.5,120.5 C 207.833,120.5 207.167,120.5 206.5,120.5C 203.856,119.856 202.189,118.189 201.5,115.5C 201.5,114.833 201.5,114.167 201.5,113.5C 204.246,107.652 208.08,106.986 213,111.5C 214.137,115.892 212.637,118.892 208.5,120.5 Z"/></g>
<g><path style="opacity:1" fill="#a0a0a0" d="M 127.5,113.5 C 130.833,113.5 134.167,113.5 137.5,113.5C 137.5,114.167 137.5,114.833 137.5,115.5C 134.167,115.5 130.833,115.5 127.5,115.5C 127.5,114.833 127.5,114.167 127.5,113.5 Z"/></g>
<g><path style="opacity:1" fill="#9f9f9f" d="M 148.5,113.5 C 151.833,113.5 155.167,113.5 158.5,113.5C 158.5,114.167 158.5,114.833 158.5,115.5C 155.167,115.5 151.833,115.5 148.5,115.5C 148.5,114.833 148.5,114.167 148.5,113.5 Z"/></g>
<g><path style="opacity:1" fill="#9f9f9f" d="M 170.5,113.5 C 173.833,113.5 177.167,113.5 180.5,113.5C 180.5,114.167 180.5,114.833 180.5,115.5C 177.167,115.5 173.833,115.5 170.5,115.5C 170.5,114.833 170.5,114.167 170.5,113.5 Z"/></g>
<g><path style="opacity:1" fill="#a0a0a0" d="M 191.5,113.5 C 194.833,113.5 198.167,113.5 201.5,113.5C 201.5,114.167 201.5,114.833 201.5,115.5C 198.167,115.5 194.833,115.5 191.5,115.5C 191.5,114.833 191.5,114.167 191.5,113.5 Z"/></g>
<g><path style="opacity:1" fill="#fdfdfd" d="M 127.5,115.5 C 130.833,115.5 134.167,115.5 137.5,115.5C 137.859,117.371 138.859,118.871 140.5,120C 144.745,121.248 147.412,119.748 148.5,115.5C 151.833,115.5 155.167,115.5 158.5,115.5C 159.117,117.229 160.117,118.729 161.5,120C 165.892,121.137 168.892,119.637 170.5,115.5C 173.833,115.5 177.167,115.5 180.5,115.5C 180.859,117.371 181.859,118.871 183.5,120C 187.745,121.248 190.412,119.748 191.5,115.5C 194.833,115.5 198.167,115.5 201.5,115.5C 202.189,118.189 203.856,119.856 206.5,120.5C 206.5,149.833 206.5,179.167 206.5,208.5C 203.833,209.167 202.167,210.833 201.5,213.5C 198.167,213.5 194.833,213.5 191.5,213.5C 190.412,209.252 187.745,207.752 183.5,209C 182.29,210.039 181.29,211.206 180.5,212.5C 177.272,213.414 173.939,213.747 170.5,213.5C 168.923,209.378 165.923,207.878 161.5,209C 159.859,210.129 158.859,211.629 158.5,213.5C 155.061,213.747 151.728,213.414 148.5,212.5C 146.913,208.944 144.246,207.778 140.5,209C 138.859,210.129 137.859,211.629 137.5,213.5C 134.167,213.5 130.833,213.5 127.5,213.5C 126.856,210.856 125.189,209.189 122.5,208.5C 122.5,179.167 122.5,149.833 122.5,120.5C 125.167,119.833 126.833,118.167 127.5,115.5 Z"/></g>
<g><path style="opacity:1" fill="#787878" d="M 34.5,116.5 C 35.1667,116.5 35.8333,116.5 36.5,116.5C 36.5,119.833 36.5,123.167 36.5,126.5C 35.8333,126.5 35.1667,126.5 34.5,126.5C 35.8333,123.167 35.8333,119.833 34.5,116.5 Z"/></g>
<g><path style="opacity:1" fill="#999999" d="M 120.5,120.5 C 121.167,120.5 121.833,120.5 122.5,120.5C 122.5,149.833 122.5,179.167 122.5,208.5C 121.833,208.5 121.167,208.5 120.5,208.5C 120.5,179.167 120.5,149.833 120.5,120.5 Z"/></g>
<g><path style="opacity:1" fill="#a0a0a0" d="M 206.5,120.5 C 207.167,120.5 207.833,120.5 208.5,120.5C 208.5,149.833 208.5,179.167 208.5,208.5C 207.833,208.5 207.167,208.5 206.5,208.5C 206.5,179.167 206.5,149.833 206.5,120.5 Z"/></g>
<g><path style="opacity:1" fill="#111111" d="M 34.5,126.5 C 35.1667,126.5 35.8333,126.5 36.5,126.5C 41.5775,128.334 42.7442,131.667 40,136.5C 38.6976,137.085 37.531,137.751 36.5,138.5C 35.8333,138.5 35.1667,138.5 34.5,138.5C 30.5535,136.721 29.0535,133.721 30,129.5C 31.129,127.859 32.629,126.859 34.5,126.5 Z"/></g>
<g><path style="opacity:1" fill="#0e0e0e" d="M 252.5,137.5 C 250.833,137.5 249.167,137.5 247.5,137.5C 244.856,135.484 244.023,132.817 245,129.5C 248.588,125.607 252.254,125.607 256,129.5C 257.218,133.33 256.051,135.996 252.5,137.5 Z"/></g>
<g><path style="opacity:1" fill="#a7a7a7" d="M 34.5,138.5 C 35.1667,138.5 35.8333,138.5 36.5,138.5C 36.5,141.5 36.5,144.5 36.5,147.5C 35.8333,147.5 35.1667,147.5 34.5,147.5C 34.5,144.5 34.5,141.5 34.5,138.5 Z"/></g>
<g><path style="opacity:1" fill="#9a9a9a" d="M 247.5,137.5 C 249.167,137.5 250.833,137.5 252.5,137.5C 251.586,140.728 251.253,144.061 251.5,147.5C 250.833,147.5 250.167,147.5 249.5,147.5C 249.94,143.821 249.273,140.488 247.5,137.5 Z"/></g>
<g><path style="opacity:1" fill="#121212" d="M 34.5,147.5 C 35.1667,147.5 35.8333,147.5 36.5,147.5C 41.0785,148.786 42.5785,151.786 41,156.5C 39.871,158.141 38.371,159.141 36.5,159.5C 35.8333,159.5 35.1667,159.5 34.5,159.5C 29.4225,157.666 28.2558,154.333 31,149.5C 32.1127,148.695 33.2794,148.028 34.5,147.5 Z"/></g>
<g><path style="opacity:1" fill="#111111" d="M 249.5,147.5 C 250.167,147.5 250.833,147.5 251.5,147.5C 255.657,149.148 257.157,152.148 256,156.5C 254.871,158.141 253.371,159.141 251.5,159.5C 250.833,159.5 250.167,159.5 249.5,159.5C 244.922,158.157 243.422,155.157 245,150.5C 246.271,149.117 247.771,148.117 249.5,147.5 Z"/></g>
<g><path style="opacity:1" fill="#8e8e8f" d="M 168.5,169.5 C 171.467,164.412 170.134,160.746 164.5,158.5C 158.889,160.708 157.556,164.374 160.5,169.5C 157.684,166.2 154.018,164.867 149.5,165.5C 149.152,169.345 146.985,171.345 143,171.5C 136.851,170.306 134.851,166.639 137,160.5C 139.653,157.806 142.82,156.973 146.5,158C 148.607,159.264 149.607,161.097 149.5,163.5C 152.247,163.813 154.914,163.48 157.5,162.5C 158.833,160.5 160.5,158.833 162.5,157.5C 163.48,154.914 163.813,152.247 163.5,149.5C 157.658,147.8 156.158,144.134 159,138.5C 165.271,133.879 169.438,135.379 171.5,143C 171.345,146.985 169.345,149.152 165.5,149.5C 165.187,152.247 165.52,154.914 166.5,157.5C 168.5,158.833 170.167,160.5 171.5,162.5C 174.086,163.48 176.753,163.813 179.5,163.5C 179.848,159.655 182.015,157.655 186,157.5C 192.149,158.694 194.149,162.361 192,168.5C 188.888,171.723 185.388,172.223 181.5,170C 179.963,168.89 179.297,167.39 179.5,165.5C 174.982,164.867 171.316,166.2 168.5,169.5 Z"/></g>
<g><path style="opacity:1" fill="#f9f9f9" d="M 161.5,137.5 C 166.406,136.306 169.406,138.139 170.5,143C 168.516,148.747 165.016,149.913 160,146.5C 158.058,143.141 158.558,140.141 161.5,137.5 Z"/></g>
<g><path style="opacity:1" fill="#f9f9f9" d="M 141.5,158.5 C 147.356,158.854 149.523,161.854 148,167.5C 142.927,171.864 139.427,170.864 137.5,164.5C 137.67,161.674 139.003,159.674 141.5,158.5 Z"/></g>
<g><path style="opacity:1" fill="#fafafa" d="M 168.5,169.5 C 165.833,169.5 163.167,169.5 160.5,169.5C 157.556,164.374 158.889,160.708 164.5,158.5C 170.134,160.746 171.467,164.412 168.5,169.5 Z"/></g>
<g><path style="opacity:1" fill="#f9f9f9" d="M 184.5,158.5 C 190.356,158.854 192.523,161.854 191,167.5C 185.927,171.864 182.427,170.864 180.5,164.5C 180.67,161.674 182.003,159.674 184.5,158.5 Z"/></g>
<g><path style="opacity:1" fill="#787878" d="M 34.5,159.5 C 35.1667,159.5 35.8333,159.5 36.5,159.5C 36.5,162.833 36.5,166.167 36.5,169.5C 35.8333,169.5 35.1667,169.5 34.5,169.5C 35.8333,166.167 35.8333,162.833 34.5,159.5 Z"/></g>
<g><path style="opacity:1" fill="#a0a0a0" d="M 249.5,159.5 C 250.167,159.5 250.833,159.5 251.5,159.5C 251.5,162.833 251.5,166.167 251.5,169.5C 250.833,169.5 250.167,169.5 249.5,169.5C 249.5,166.167 249.5,162.833 249.5,159.5 Z"/></g>
<g><path style="opacity:1" fill="#111111" d="M 34.5,169.5 C 35.1667,169.5 35.8333,169.5 36.5,169.5C 41.5775,171.334 42.7442,174.667 40,179.5C 38.6976,180.085 37.531,180.751 36.5,181.5C 35.8333,181.5 35.1667,181.5 34.5,181.5C 30.5535,179.721 29.0535,176.721 30,172.5C 31.129,170.859 32.629,169.859 34.5,169.5 Z"/></g>
<g><path style="opacity:1" fill="#0f0f0f" d="M 249.5,169.5 C 250.167,169.5 250.833,169.5 251.5,169.5C 255.748,170.588 257.248,173.255 256,177.5C 255.241,179.063 254.074,180.063 252.5,180.5C 250.833,180.5 249.167,180.5 247.5,180.5C 244.856,178.484 244.023,175.817 245,172.5C 246.129,170.859 247.629,169.859 249.5,169.5 Z"/></g>
<g><path style="opacity:1" fill="#8d8d8e" d="M 76.5,135.5 C 83.6853,135.848 86.5186,139.515 85,146.5C 83.7365,148.607 81.9032,149.607 79.5,149.5C 78.6218,154.087 80.1218,157.42 84,159.5C 86.7439,164.762 85.5772,168.762 80.5,171.5C 79.3526,173.765 79.1859,176.098 80,178.5C 85.0665,180.581 86.7332,184.248 85,189.5C 78.6531,195.455 74.1531,194.288 71.5,186C 71.7969,182.37 73.6302,179.87 77,178.5C 77.8141,176.098 77.6474,173.765 76.5,171.5C 69.8333,166.833 69.8333,162.167 76.5,157.5C 77.48,154.914 77.8134,152.247 77.5,149.5C 71.658,147.8 70.158,144.134 73,138.5C 74.1451,137.364 75.3117,136.364 76.5,135.5 Z"/></g>
<g><path style="opacity:1" fill="#f8f8f9" d="M 76.5,158.5 C 81.9802,158.496 84.4802,161.162 84,166.5C 81.0782,171.233 77.7448,171.566 74,167.5C 72.9271,163.9 73.7605,160.9 76.5,158.5 Z"/></g>
<g><path style="opacity:1" fill="#f9f9f9" d="M 75.5,137.5 C 80.4058,136.306 83.4058,138.139 84.5,143C 82.5156,148.747 79.0156,149.913 74,146.5C 72.0583,143.141 72.5583,140.141 75.5,137.5 Z"/></g>
<g><path style="opacity:1" fill="#f9f9f9" d="M 75.5,180.5 C 80.4058,179.306 83.4058,181.139 84.5,186C 82.5156,191.747 79.0156,192.913 74,189.5C 72.0583,186.141 72.5583,183.141 75.5,180.5 Z"/></g>
<g><path style="opacity:1" fill="#8f8f90" d="M 160.5,169.5 C 163.167,169.5 165.833,169.5 168.5,169.5C 168.179,171.048 167.179,171.715 165.5,171.5C 165.5,174.167 165.5,176.833 165.5,179.5C 171.342,181.2 172.842,184.866 170,190.5C 166.333,194.5 162.667,194.5 159,190.5C 156.332,185.181 157.665,181.181 163,178.5C 163.948,174.903 163.115,171.903 160.5,169.5 Z"/></g>
<g><path style="opacity:1" fill="#f9f9f9" d="M 161.5,180.5 C 166.406,179.306 169.406,181.139 170.5,186C 168.516,191.747 165.016,192.913 160,189.5C 158.058,186.141 158.558,183.141 161.5,180.5 Z"/></g>
<g><path style="opacity:1" fill="#9b9b9b" d="M 247.5,180.5 C 249.167,180.5 250.833,180.5 252.5,180.5C 251.586,183.728 251.253,187.061 251.5,190.5C 250.833,190.5 250.167,190.5 249.5,190.5C 249.94,186.821 249.273,183.488 247.5,180.5 Z"/></g>
<g><path style="opacity:1" fill="#a7a7a7" d="M 34.5,181.5 C 35.1667,181.5 35.8333,181.5 36.5,181.5C 36.5,184.5 36.5,187.5 36.5,190.5C 35.8333,190.5 35.1667,190.5 34.5,190.5C 34.5,187.5 34.5,184.5 34.5,181.5 Z"/></g>
<g><path style="opacity:1" fill="#111112" d="M 34.5,190.5 C 35.1667,190.5 35.8333,190.5 36.5,190.5C 41.0776,191.882 42.5776,194.882 41,199.5C 39.871,201.141 38.371,202.141 36.5,202.5C 35.8333,202.5 35.1667,202.5 34.5,202.5C 29.6854,200.524 28.5188,197.191 31,192.5C 32.1127,191.695 33.2794,191.028 34.5,190.5 Z"/></g>
<g><path style="opacity:1" fill="#121212" d="M 249.5,190.5 C 250.167,190.5 250.833,190.5 251.5,190.5C 256.582,192.372 257.748,195.705 255,200.5C 247.629,204.141 244.296,201.807 245,193.5C 246.129,191.859 247.629,190.859 249.5,190.5 Z"/></g>
<g><path style="opacity:1" fill="#8d8d8e" d="M 296.5,94.5 C 299.138,95.2415 300.471,97.0749 300.5,100C 300.172,103.829 298.172,106.329 294.5,107.5C 293.526,109.743 293.192,112.076 293.5,114.5C 299.087,115.591 301.254,118.924 300,124.5C 299.292,125.381 298.458,126.047 297.5,126.5C 296.713,128.104 295.38,128.771 293.5,128.5C 293.337,130.857 293.503,133.19 294,135.5C 300.072,137.645 301.738,141.645 299,147.5C 297.559,148.87 295.892,149.87 294,150.5C 293.133,153.521 293.633,156.188 295.5,158.5C 300.577,160.334 301.744,163.667 299,168.5C 297.736,170.607 295.903,171.607 293.5,171.5C 293.337,173.857 293.503,176.19 294,178.5C 300.072,180.645 301.738,184.645 299,190.5C 297.89,192.037 296.39,192.703 294.5,192.5C 294.187,195.247 294.52,197.914 295.5,200.5C 300.494,202.978 301.66,206.645 299,211.5C 297.736,213.607 295.903,214.607 293.5,214.5C 293.192,216.924 293.526,219.257 294.5,221.5C 300.218,223.934 301.718,227.934 299,233.5C 297.559,234.87 295.892,235.87 294,236.5C 293.503,238.81 293.337,241.143 293.5,243.5C 300.004,244.836 301.838,248.503 299,254.5C 295.603,257.981 291.936,258.314 288,255.5C 285.256,250.238 286.423,246.238 291.5,243.5C 292.48,240.914 292.813,238.247 292.5,235.5C 286.905,234.44 285.071,231.107 287,225.5C 288.378,223.787 290.045,222.453 292,221.5C 293.268,217.231 291.934,214.231 288,212.5C 285.256,207.238 286.423,203.238 291.5,200.5C 292.48,197.914 292.813,195.247 292.5,192.5C 286.905,191.44 285.071,188.107 287,182.5C 288.378,180.787 290.045,179.453 292,178.5C 292.814,176.098 292.647,173.765 291.5,171.5C 284.858,166.934 284.858,162.267 291.5,157.5C 292.647,155.235 292.814,152.902 292,150.5C 289.585,149.589 288.085,147.922 287.5,145.5C 285.378,140.775 286.878,137.441 292,135.5C 292.814,133.098 292.647,130.765 291.5,128.5C 284.858,123.934 284.858,119.267 291.5,114.5C 292.647,112.235 292.814,109.902 292,107.5C 289.585,106.589 288.085,104.922 287.5,102.5C 289.9,105.24 292.9,106.073 296.5,105C 299.12,101.502 299.12,98.0019 296.5,94.5 Z"/></g>
<g><path style="opacity:1" fill="#fafafa" d="M 290.5,180.5 C 298.618,180.382 300.618,183.882 296.5,191C 291.608,192.69 288.608,191.023 287.5,186C 288.124,183.915 289.124,182.082 290.5,180.5 Z"/></g>
<g><path style="opacity:1" fill="#f9f9f9" d="M 295.5,158.5 C 299.445,162.336 299.445,166.169 295.5,170C 289.667,170.833 287.167,168.333 288,162.5C 289.715,159.603 292.215,158.269 295.5,158.5 Z"/></g>
<g><path style="opacity:1" fill="#f9f9f9" d="M 287.5,145.5 C 287.838,137.635 291.338,135.635 298,139.5C 298.866,148.949 295.366,150.949 287.5,145.5 Z"/></g>
<g><path style="opacity:1" fill="#f9f9f9" d="M 297.5,126.5 C 290.891,128.625 287.725,126.291 288,119.5C 290.932,114.627 294.265,114.294 298,118.5C 298.602,121.221 298.435,123.887 297.5,126.5 Z"/></g>
<g><path style="opacity:1" fill="#fafafa" d="M 291.5,201.5 C 298.57,202.407 300.237,205.907 296.5,212C 290.07,214.219 287.237,212.053 288,205.5C 288.69,203.65 289.856,202.316 291.5,201.5 Z"/></g>
<g><path style="opacity:1" fill="#777777" d="M 34.5,202.5 C 35.1667,202.5 35.8333,202.5 36.5,202.5C 36.5,205.833 36.5,209.167 36.5,212.5C 35.8333,212.5 35.1667,212.5 34.5,212.5C 35.8333,209.167 35.8333,205.833 34.5,202.5 Z"/></g>
<g><path style="opacity:1" fill="#101011" d="M 120.5,208.5 C 121.167,208.5 121.833,208.5 122.5,208.5C 125.189,209.189 126.856,210.856 127.5,213.5C 127.5,214.167 127.5,214.833 127.5,215.5C 125.892,219.637 122.892,221.137 118.5,220C 113.986,215.08 114.652,211.246 120.5,208.5 Z"/></g>
<g><path style="opacity:1" fill="#0b0b0b" d="M 148.5,212.5 C 148.5,213.5 148.5,214.5 148.5,215.5C 147.098,220.245 144.098,221.579 139.5,219.5C 138.37,218.378 137.703,217.044 137.5,215.5C 137.5,214.833 137.5,214.167 137.5,213.5C 137.859,211.629 138.859,210.129 140.5,209C 144.246,207.778 146.913,208.944 148.5,212.5 Z"/></g>
<g><path style="opacity:1" fill="#101011" d="M 170.5,213.5 C 170.5,214.167 170.5,214.833 170.5,215.5C 168.892,219.637 165.892,221.137 161.5,220C 160.117,218.729 159.117,217.229 158.5,215.5C 158.5,214.833 158.5,214.167 158.5,213.5C 158.859,211.629 159.859,210.129 161.5,209C 165.923,207.878 168.923,209.378 170.5,213.5 Z"/></g>
<g><path style="opacity:1" fill="#0b0b0b" d="M 191.5,213.5 C 191.5,214.167 191.5,214.833 191.5,215.5C 190.098,220.245 187.098,221.579 182.5,219.5C 181.37,218.378 180.703,217.044 180.5,215.5C 180.5,214.5 180.5,213.5 180.5,212.5C 181.29,211.206 182.29,210.039 183.5,209C 187.745,207.752 190.412,209.252 191.5,213.5 Z"/></g>
<g><path style="opacity:1" fill="#101011" d="M 206.5,208.5 C 207.167,208.5 207.833,208.5 208.5,208.5C 213.582,210.372 214.748,213.705 212,218.5C 207.168,221.838 203.668,220.838 201.5,215.5C 201.5,214.833 201.5,214.167 201.5,213.5C 202.167,210.833 203.833,209.167 206.5,208.5 Z"/></g>
<g><path style="opacity:1" fill="#101010" d="M 34.5,212.5 C 35.1667,212.5 35.8333,212.5 36.5,212.5C 41.5775,214.334 42.7442,217.667 40,222.5C 38.6976,223.085 37.531,223.751 36.5,224.5C 35.8333,224.5 35.1667,224.5 34.5,224.5C 27.8981,220.263 27.8981,216.263 34.5,212.5 Z"/></g>
<g><path style="opacity:1" fill="#8d8d8d" d="M 127.5,213.5 C 130.833,213.5 134.167,213.5 137.5,213.5C 137.5,214.167 137.5,214.833 137.5,215.5C 134.167,215.5 130.833,215.5 127.5,215.5C 127.5,214.833 127.5,214.167 127.5,213.5 Z"/></g>
<g><path style="opacity:1" fill="#8f8f8f" d="M 148.5,212.5 C 151.728,213.414 155.061,213.747 158.5,213.5C 158.5,214.167 158.5,214.833 158.5,215.5C 155.167,215.5 151.833,215.5 148.5,215.5C 148.5,214.5 148.5,213.5 148.5,212.5 Z"/></g>
<g><path style="opacity:1" fill="#8f8f8f" d="M 180.5,212.5 C 180.5,213.5 180.5,214.5 180.5,215.5C 177.167,215.5 173.833,215.5 170.5,215.5C 170.5,214.833 170.5,214.167 170.5,213.5C 173.939,213.747 177.272,213.414 180.5,212.5 Z"/></g>
<g><path style="opacity:1" fill="#8d8d8d" d="M 191.5,213.5 C 194.833,213.5 198.167,213.5 201.5,213.5C 201.5,214.167 201.5,214.833 201.5,215.5C 198.167,215.5 194.833,215.5 191.5,215.5C 191.5,214.833 191.5,214.167 191.5,213.5 Z"/></g>
<g><path style="opacity:1" fill="#fafafa" d="M 290.5,223.5 C 298.618,223.382 300.618,226.882 296.5,234C 291.608,235.69 288.608,234.023 287.5,229C 288.124,226.915 289.124,225.082 290.5,223.5 Z"/></g>
<g><path style="opacity:1" fill="#939393" d="M 34.5,224.5 C 35.1667,224.5 35.8333,224.5 36.5,224.5C 36.5,227.5 36.5,230.5 36.5,233.5C 35.8333,233.5 35.1667,233.5 34.5,233.5C 34.5,230.5 34.5,227.5 34.5,224.5 Z"/></g>
<g><path style="opacity:1" fill="#121212" d="M 34.5,233.5 C 35.1667,233.5 35.8333,233.5 36.5,233.5C 41.0776,234.882 42.5776,237.882 41,242.5C 33.4173,247.839 29.7506,245.839 30,236.5C 31.2708,235.117 32.7708,234.117 34.5,233.5 Z"/></g>
<g><path style="opacity:1" fill="#fbfbfb" d="M 291.5,244.5 C 298.57,245.407 300.237,248.907 296.5,255C 290.662,256.48 287.829,254.313 288,248.5C 288.69,246.65 289.856,245.316 291.5,244.5 Z"/></g>
<g><path style="opacity:1" fill="#f8f8f8" d="M 168.5,252.5 C 169.455,254.746 170.122,257.079 170.5,259.5C 165.88,265.187 161.88,264.687 158.5,258C 159.964,253.022 163.297,251.189 168.5,252.5 Z"/></g>
<g><path style="opacity:1" fill="#979798" d="M 168.5,252.5 C 163.297,251.189 159.964,253.022 158.5,258C 161.88,264.687 165.88,265.187 170.5,259.5C 170.208,263.004 168.208,264.671 164.5,264.5C 158.602,263.72 156.435,260.387 158,254.5C 160.954,250.141 164.454,249.474 168.5,252.5 Z"/></g>
<g><path style="opacity:1" fill="#8a8a8b" d="M 168.5,252.5 C 171.449,254.265 172.115,256.598 170.5,259.5C 170.122,257.079 169.455,254.746 168.5,252.5 Z"/></g>
<g><path style="opacity:1" fill="#121212" d="M 116.5,292.5 C 116.5,293.167 116.5,293.833 116.5,294.5C 113.272,300.591 109.438,300.924 105,295.5C 104.332,289.171 107.166,286.671 113.5,288C 115.141,289.129 116.141,290.629 116.5,292.5 Z"/></g>
<g><path style="opacity:1" fill="#0d0d0d" d="M 137.5,290.5 C 137.5,291.833 137.5,293.167 137.5,294.5C 136.412,298.748 133.745,300.248 129.5,299C 128.117,297.729 127.117,296.229 126.5,294.5C 126.5,293.833 126.5,293.167 126.5,292.5C 127.212,289.622 129.046,287.955 132,287.5C 134.399,287.613 136.232,288.613 137.5,290.5 Z"/></g>
<g><path style="opacity:1" fill="#0e0e0e" d="M 159.5,292.5 C 159.5,293.167 159.5,293.833 159.5,294.5C 158.201,298.318 155.534,299.818 151.5,299C 149.859,297.871 148.859,296.371 148.5,294.5C 148.5,293.167 148.5,291.833 148.5,290.5C 150.407,287.668 153.073,286.834 156.5,288C 158.141,289.129 159.141,290.629 159.5,292.5 Z"/></g>
<g><path style="opacity:1" fill="#0c0c0c" d="M 180.5,290.5 C 180.5,291.833 180.5,293.167 180.5,294.5C 179.412,298.748 176.745,300.248 172.5,299C 171.117,297.729 170.117,296.229 169.5,294.5C 169.5,293.833 169.5,293.167 169.5,292.5C 170.212,289.622 172.046,287.955 175,287.5C 177.399,287.613 179.232,288.613 180.5,290.5 Z"/></g>
<g><path style="opacity:1" fill="#0c0c0c" d="M 202.5,292.5 C 202.5,293.167 202.5,293.833 202.5,294.5C 201.17,298.333 198.503,299.833 194.5,299C 192.859,297.871 191.859,296.371 191.5,294.5C 191.5,293.167 191.5,291.833 191.5,290.5C 193.88,287.126 196.88,286.626 200.5,289C 201.823,289.816 202.489,290.983 202.5,292.5 Z"/></g>
<g><path style="opacity:1" fill="#121212" d="M 212.5,294.5 C 212.5,293.833 212.5,293.167 212.5,292.5C 214.334,287.423 217.667,286.256 222.5,289C 225.834,294.382 224.334,297.882 218,299.5C 215.046,299.045 213.212,297.378 212.5,294.5 Z"/></g>
<g><path style="opacity:1" fill="#6c6c6c" d="M 137.5,290.5 C 141.167,293.167 144.833,293.167 148.5,290.5C 148.5,291.833 148.5,293.167 148.5,294.5C 144.833,293.167 141.167,293.167 137.5,294.5C 137.5,293.167 137.5,291.833 137.5,290.5 Z"/></g>
<g><path style="opacity:1" fill="#6c6c6c" d="M 180.5,290.5 C 184.167,293.167 187.833,293.167 191.5,290.5C 191.5,291.833 191.5,293.167 191.5,294.5C 187.833,293.167 184.167,293.167 180.5,294.5C 180.5,293.167 180.5,291.833 180.5,290.5 Z"/></g>
<g><path style="opacity:1" fill="#a3a3a3" d="M 116.5,292.5 C 119.833,292.5 123.167,292.5 126.5,292.5C 126.5,293.167 126.5,293.833 126.5,294.5C 123.167,294.5 119.833,294.5 116.5,294.5C 116.5,293.833 116.5,293.167 116.5,292.5 Z"/></g>
<g><path style="opacity:1" fill="#a3a3a3" d="M 159.5,292.5 C 162.833,292.5 166.167,292.5 169.5,292.5C 169.5,293.167 169.5,293.833 169.5,294.5C 166.167,294.5 162.833,294.5 159.5,294.5C 159.5,293.833 159.5,293.167 159.5,292.5 Z"/></g>
<g><path style="opacity:1" fill="#a3a3a3" d="M 202.5,292.5 C 205.833,292.5 209.167,292.5 212.5,292.5C 212.5,293.167 212.5,293.833 212.5,294.5C 209.167,294.5 205.833,294.5 202.5,294.5C 202.5,293.833 202.5,293.167 202.5,292.5 Z"/></g>
</svg>
