<svg width="124" height="38" viewBox="0 0 124 38" fill="none" xmlns="http://www.w3.org/2000/svg">
<g id="Group 1430102456">
<path id="Vector" d="M24.8493 28.2735C25.8936 28.2725 26.9116 28.5932 27.7585 29.1899C28.9084 26.8846 28.6236 24.7049 26.976 22.6597C26.728 22.3503 26.4432 22.0692 26.1477 21.7448C26.4539 21.6835 26.6989 21.6342 26.947 21.5818C30.5865 20.8059 33.1558 16.4166 30.3722 12.7748C29.2699 11.3567 27.8915 10.1653 26.3161 9.26901C25.9578 9.05821 25.8966 8.89526 26.0818 8.52151C26.7617 7.17601 27.4078 5.79612 28.0616 4.42969L28.2944 3.94232L25.0407 2.44732L22.6612 7.40325L20.5176 6.42851L22.9016 1.47557L19.6816 0C18.8762 1.6759 18.0922 3.30844 17.2853 4.98433L10.8805 2.04965L9.31713 5.30277L9.88979 5.56439C10.6018 5.89778 11.3306 6.20127 12.0212 6.57801C12.9843 7.09528 13.116 7.55723 12.6551 8.52151C10.5176 12.9696 8.37955 17.4178 6.24102 21.8659C5.48922 23.4297 5.036 23.5986 3.45431 22.878L1.597 22.0273L0 25.3373L6.16906 28.1643L3.7192 33.2473L6.93464 34.7214L9.37072 29.6534L11.5144 30.6341C10.6936 32.3384 9.88826 34.0143 9.0844 35.6872L12.3228 37.1717C13.1435 35.4674 13.9428 33.805 14.7558 32.1126C14.9748 32.2008 15.1447 32.2726 15.3162 32.3384C16.1783 32.6688 17.0265 33.0455 17.907 33.3176C18.5556 33.5221 19.2218 33.6692 19.8975 33.7571C19.8705 33.5509 19.8567 33.3432 19.8561 33.1352C19.8561 32.4956 19.9854 31.8623 20.2365 31.2716C20.4876 30.6809 20.8556 30.1443 21.3194 29.6927C21.7833 29.241 22.3338 28.8832 22.9395 28.6397C23.5452 28.3961 24.1942 28.2717 24.8493 28.2735ZM18.8777 9.94923C19.1212 10.0614 19.3478 10.1615 19.5729 10.2692C20.9096 10.9135 22.355 11.374 23.4544 12.3995C23.9597 12.872 24.4603 13.446 24.7038 14.071C25.3163 15.6542 23.8984 17.7397 22.0518 18.1075C21.293 18.2763 20.4979 18.1871 19.798 17.8548C18.573 17.2732 17.3481 16.7201 16.1232 16.1535C16.0622 16.1166 16.0044 16.0751 15.9501 16.0294L18.8777 9.94923ZM16.8244 28.3377C16.0461 28.139 15.2869 27.8749 14.5552 27.5484C13.4252 27.07 12.3197 26.5333 11.1591 26.0011C12.2401 23.7586 13.2874 21.5744 14.347 19.3677C14.4799 19.4045 14.6107 19.4479 14.739 19.4978C16.0604 20.0958 17.4032 20.6624 18.6894 21.3292C19.4299 21.7126 20.1148 22.1907 20.7258 22.7509C22.257 24.1697 22.257 25.7798 20.83 27.3062C19.7199 28.4872 18.3265 28.6876 16.8244 28.3363V28.3377Z" fill="#17181B"/>
<path id="Vector_2" d="M28.089 29.1909C28.043 29.2821 27.9956 29.3718 27.9466 29.463C26.8671 31.4394 25.4447 33.0301 23.1142 33.6087C22.1743 33.8342 21.1994 33.8849 20.2402 33.7582C20.3457 34.5583 20.6534 35.3202 21.1355 35.9753C21.6177 36.6305 22.2592 37.1582 23.0022 37.5109C23.7453 37.8637 24.5665 38.0305 25.392 37.9962C26.2175 37.9619 27.0213 37.7277 27.731 37.3146C28.4406 36.9015 29.0339 36.3225 29.4574 35.6298C29.8808 34.937 30.1211 34.1524 30.1566 33.3464C30.1921 32.5404 30.0218 31.7385 29.6608 31.0128C29.2999 30.2871 28.7597 29.6605 28.089 29.1895V29.1909Z" fill="#FFD415"/>
<path id="Vector_3" d="M23.1126 33.6069C25.443 33.0284 26.8655 31.4377 27.945 29.4613C27.994 29.3701 28.0414 29.2804 28.0874 29.1892C27.3434 28.6665 26.4661 28.3543 25.5521 28.2872C24.6381 28.22 23.7228 28.4003 22.907 28.8084C22.0913 29.2165 21.4066 29.8364 20.9285 30.6C20.4504 31.3635 20.1974 32.2411 20.1973 33.136C20.1979 33.3439 20.2117 33.5516 20.2386 33.7579C21.1978 33.8842 22.1728 33.833 23.1126 33.6069Z" fill="#F7771B"/>
<path id="Vector_4" d="M46.2565 14.0537C47.7876 14.0537 49.0381 14.4439 50.0078 15.2243C50.9776 16.0047 51.4609 16.9799 51.4578 18.15C51.4739 18.8543 51.2652 19.5461 50.8607 20.1294C50.4152 20.7318 49.8072 21.2017 49.1044 21.4869V21.6274C50.2712 21.8845 51.1802 22.3933 51.8314 23.1538C52.4775 23.9007 52.8245 24.8508 52.8083 25.8283C52.8181 26.6895 52.5666 27.5343 52.0856 28.2562C51.6057 28.9729 50.9173 29.5331 50.1089 29.8648C49.1647 30.2425 48.1508 30.4257 47.1308 30.403H40.1211V14.0537H46.2565ZM45.3944 20.841C46.2488 20.841 46.9241 20.6417 47.4202 20.243C47.9163 19.8443 48.1638 19.2907 48.1628 18.5821C48.1749 18.297 48.1197 18.013 48.0012 17.7522C47.8828 17.4914 47.7044 17.2607 47.4799 17.0781C47.0236 16.7093 46.4244 16.5244 45.6823 16.5235H43.358V20.841H45.3944ZM46.1493 27.9303C47.2436 27.9303 48.0704 27.731 48.6298 27.3323C49.1887 26.9317 49.4689 26.3396 49.4689 25.5607C49.4794 25.2408 49.4089 24.9234 49.2636 24.6365C49.1183 24.3496 48.9027 24.1022 48.6359 23.9162C48.0796 23.5176 47.3344 23.3182 46.4004 23.3182H43.358V27.9393L46.1493 27.9303Z" fill="#17181B"/>
<path id="Vector_5" d="M55.2579 14.4189C55.6982 14.4236 56.1192 14.5965 56.4306 14.9005C56.742 15.2046 56.919 15.6156 56.9238 16.0455C56.9239 16.2575 56.881 16.4674 56.7977 16.6632C56.7144 16.8589 56.5923 17.0367 56.4384 17.1862C56.2878 17.3429 56.1059 17.4678 55.9039 17.5531C55.7019 17.6385 55.4841 17.6825 55.264 17.6825C55.0439 17.6825 54.8262 17.6385 54.6242 17.5531C54.4222 17.4678 54.2403 17.3429 54.0896 17.1862C53.9324 17.0385 53.8073 16.8613 53.7218 16.6653C53.6363 16.4694 53.5921 16.2585 53.592 16.0455C53.5886 15.8297 53.6317 15.6155 53.7185 15.4169C53.8052 15.2184 53.9338 15.0398 54.0957 14.8929C54.2474 14.7424 54.4284 14.623 54.6279 14.5416C54.8275 14.4602 55.0416 14.4185 55.2579 14.4189ZM56.7324 19.4735V30.402H53.7834V19.4735H56.7324Z" fill="#17181B"/>
<path id="Vector_6" d="M61.8625 16.5723H62.1014V19.4741H65.9293V21.6508H62.1014V26.6934C62.0872 26.9145 62.1217 27.136 62.2025 27.343C62.2833 27.55 62.4086 27.7377 62.5699 27.8935C62.7312 28.0493 62.9248 28.1696 63.1377 28.2462C63.3505 28.3229 63.5778 28.3541 63.804 28.3379C64.49 28.3379 65.2806 28.0962 66.1758 27.6128V29.9181C65.238 30.3505 64.2177 30.5858 63.1808 30.6088C61.9181 30.6088 60.9331 30.273 60.2257 29.6012C59.5183 28.9294 59.1651 28.021 59.1661 26.8758V21.6433H57.416V21.1754L61.8625 16.5723Z" fill="#17181B"/>
<path id="Vector_7" d="M68.6606 27.0206C68.9003 27.0199 69.1378 27.0662 69.3589 27.1565C69.5801 27.2469 69.7805 27.3796 69.9483 27.5468C70.1274 27.7095 70.2695 27.907 70.3655 28.1267C70.4615 28.3464 70.5093 28.5832 70.5056 28.822C70.5075 29.1197 70.4339 29.4132 70.2913 29.6763C70.1488 29.9394 69.9417 30.164 69.6886 30.3299C69.4355 30.4959 69.1443 30.5981 68.8409 30.6274C68.5376 30.6567 68.2315 30.6122 67.95 30.4979C67.6685 30.3836 67.4204 30.203 67.2278 29.9723C67.0351 29.7416 66.904 29.4679 66.8461 29.1756C66.7882 28.8834 66.8053 28.5817 66.8959 28.2975C66.9865 28.0133 67.1477 27.7554 67.3652 27.5468C67.5338 27.3785 67.7354 27.2451 67.9579 27.1547C68.1805 27.0643 68.4195 27.0187 68.6606 27.0206Z" fill="#FFD415"/>
<path id="Vector_8" d="M77.1499 13.8448C78.798 13.8495 80.4181 14.2609 81.8597 15.0408V17.8485C80.1244 16.8269 78.5866 16.3161 77.2463 16.3161C76.4297 16.3161 75.7927 16.4701 75.3354 16.778C75.1213 16.9084 74.9453 17.0906 74.8246 17.307C74.7039 17.5234 74.6425 17.7665 74.6464 18.0129C74.6464 18.6288 75.0736 19.1979 75.928 19.7202C76.1689 19.8767 77.0917 20.3137 78.6963 21.0313C80.0693 21.6622 81.0599 22.3644 81.6683 23.1378C82.285 23.9387 82.6061 24.9198 82.5794 25.9215C82.5794 27.3258 82.0618 28.459 81.0268 29.3211C79.9917 30.1832 78.6514 30.6143 77.0059 30.6143C76.0749 30.6318 75.1462 30.5154 74.2498 30.2689C73.3387 29.9735 72.4673 29.5719 71.6545 29.0729V25.9663C73.4449 27.4175 75.1292 28.143 76.7073 28.143C77.4974 28.143 78.1364 27.9756 78.6244 27.6407C78.8522 27.497 79.0388 27.2991 79.1666 27.0655C79.2944 26.8319 79.3591 26.5704 79.3547 26.3057C79.3547 25.5492 78.9316 24.9333 78.0854 24.4579C77.3831 24.0831 76.4761 23.6346 75.3645 23.1124C74.0457 22.5283 73.0611 21.8456 72.4109 21.0642C71.766 20.3015 71.4197 19.3398 71.434 18.3508C71.434 16.9774 71.9572 15.881 73.0035 15.0618C74.0498 14.2425 75.4319 13.8369 77.1499 13.8448Z" fill="#17181B"/>
<path id="Vector_9" d="M86.8805 16.5723H87.1209V19.4741H90.9488V21.6508H87.1209V26.6934C87.1063 26.9145 87.1404 27.1361 87.2209 27.3432C87.3014 27.5503 87.4266 27.7381 87.5878 27.894C87.749 28.0499 87.9427 28.1702 88.1556 28.2468C88.3685 28.3233 88.5958 28.3544 88.822 28.3379C89.51 28.3379 90.3011 28.0962 91.1953 27.6128V29.9181C90.2571 30.3507 89.2362 30.586 88.1988 30.6088C86.9372 30.6088 85.9526 30.273 85.2452 29.6012C84.5378 28.9294 84.1841 28.021 84.1841 26.8758V21.6433H82.4355V21.1754L86.8805 16.5723Z" fill="#17181B"/>
<path id="Vector_10" d="M97.1872 19.2633C98.289 19.2488 99.3782 19.4934 100.363 19.9764C101.279 20.4228 102.045 21.1172 102.568 21.9767C103.094 22.8603 103.362 23.8672 103.346 24.889C103.37 25.9269 103.111 26.9525 102.597 27.8611C102.08 28.7285 101.313 29.4287 100.392 29.8748C99.4007 30.3704 98.3008 30.6234 97.1872 30.6119C96.0748 30.6258 94.9759 30.3727 93.9871 29.8748C93.0737 29.4247 92.314 28.7251 91.8006 27.8611C91.2856 26.9526 91.0267 25.927 91.0503 24.889C91.0317 23.8596 91.3057 22.8453 91.8419 21.9588C92.3684 21.1049 93.1332 20.4151 94.0468 19.9704C95.0201 19.4915 96.0974 19.249 97.1872 19.2633ZM94.1433 24.8905C94.1433 25.9868 94.4168 26.8589 94.964 27.5067C95.2276 27.825 95.5636 28.0789 95.9453 28.2484C96.3269 28.4178 96.7438 28.4981 97.1627 28.483C98.1212 28.483 98.8761 28.171 99.4273 27.5471C99.9785 26.9232 100.254 26.0302 100.254 24.8681C100.254 23.7608 99.9765 22.9046 99.4212 22.2997C98.8659 21.6947 98.1131 21.3922 97.1627 21.3922C96.7485 21.3802 96.337 21.4604 95.9592 21.6267C95.5815 21.793 95.2474 22.041 94.9823 22.352C94.4219 22.9918 94.1422 23.838 94.1433 24.8905Z" fill="#17181B"/>
<path id="Vector_11" d="M110.876 19.2627C111.276 19.2645 111.671 19.3523 112.032 19.5198C112.508 19.7541 112.953 20.0448 113.357 20.3854L112.302 22.9015C111.447 22.2786 110.76 21.9667 110.241 21.9657C109.747 21.9793 109.272 22.1546 108.893 22.4635C108.433 22.8118 108.066 23.263 107.821 23.7791C107.562 24.2905 107.425 24.8528 107.42 25.4236V30.4079H104.48V19.4795H107.428V22.2647H107.475C108.011 21.2112 108.551 20.4487 109.094 19.9773C109.574 19.5275 110.211 19.2721 110.876 19.2627Z" fill="#17181B"/>
<path id="Vector_12" d="M118.028 19.2627C119.675 19.2627 120.977 19.7775 121.934 20.807C122.892 21.8366 123.372 23.2603 123.374 25.0782V25.5103H115.451C115.572 26.487 115.945 27.238 116.572 27.7633C117.199 28.2885 118.06 28.5521 119.155 28.5541C119.849 28.5563 120.537 28.4352 121.186 28.1968C121.904 27.9238 122.583 27.5599 123.205 27.1144V29.2568C121.895 30.1618 120.305 30.6142 118.436 30.6142C116.671 30.6142 115.229 30.0955 114.11 29.0579C112.991 28.0204 112.43 26.6395 112.426 24.9153C112.426 23.2538 112.943 21.8969 113.978 20.8444C115.013 19.7919 116.363 19.2647 118.028 19.2627ZM120.605 23.7701C120.526 22.9728 120.278 22.3509 119.861 21.9044C119.445 21.4579 118.874 21.2326 118.148 21.2286C117.405 21.2286 116.807 21.4429 116.356 21.8715C115.905 22.3 115.62 22.9329 115.5 23.7701H120.605Z" fill="#17181B"/>
</g>
</svg>
